<?xml version="1.0" standalone="no"?>
<!DOCTYPE svg PUBLIC "-//W3C//DTD SVG 20010904//EN"
 "http://www.w3.org/TR/2001/REC-SVG-20010904/DTD/svg10.dtd">
<svg version="1.0" xmlns="http://www.w3.org/2000/svg"
 width="481.000000pt" height="469.000000pt" viewBox="0 0 481.000000 469.000000"
 preserveAspectRatio="xMidYMid meet">

<g transform="translate(0.000000,469.000000) scale(0.100000,-0.100000)"
fill="#000000" stroke="none">
<path d="M3683 4600 c-51 -73 -307 -186 -508 -224 -44 -8 -141 -20 -215 -26
-349 -28 -506 -94 -589 -249 -16 -29 -31 -49 -33 -45 -3 5 -1 47 3 94 11 116
13 169 7 175 -3 3 -58 6 -122 7 -141 2 -148 -3 -122 -70 47 -123 92 -322 72
-322 -3 0 -34 22 -67 49 -149 120 -280 161 -515 161 -174 0 -265 -14 -423 -66
-172 -57 -403 -182 -491 -266 -231 -219 -351 -471 -400 -843 -5 -44 -20 -113
-32 -154 -30 -103 -34 -101 204 -101 103 0 188 -2 188 -5 0 -3 -11 -27 -24
-53 -34 -68 -73 -189 -93 -290 -26 -131 -23 -366 6 -502 75 -352 235 -633 456
-801 70 -53 201 -128 265 -153 25 -9 77 -30 115 -46 217 -91 426 -145 650
-170 118 -13 500 -13 623 0 508 55 858 168 1117 362 273 204 390 356 479 620
108 324 96 685 -34 996 -45 106 -136 264 -213 367 -73 99 -279 301 -365 358
-61 41 -192 108 -280 143 -23 9 -21 11 35 49 161 110 240 220 302 420 56 182
94 578 59 613 -18 18 -24 15 -55 -28z m-13 -107 c-1 -43 -216 -320 -310 -400
-194 -166 -431 -280 -845 -405 -71 -22 -137 -41 -145 -44 -16 -5 -20 18 -20
136 -1 81 39 243 76 311 43 78 125 134 241 164 66 18 240 40 386 50 158 10
470 108 567 177 26 18 50 23 50 11z m0 -255 c-46 -314 -134 -472 -343 -612
l-78 -52 -82 17 c-135 29 -318 49 -452 50 -70 0 -123 4 -119 9 5 5 47 21 94
36 300 95 579 245 735 396 44 42 121 131 170 197 50 66 91 116 93 111 2 -5 -6
-73 -18 -152z m-1383 -55 c-4 -54 -7 -154 -7 -222 l0 -124 -25 23 c-16 15 -23
30 -20 41 10 32 -15 189 -45 278 -17 49 -30 92 -30 95 0 3 30 6 67 6 l66 0 -6
-97z m-528 -94 c84 -13 192 -56 267 -104 60 -40 252 -220 243 -229 -3 -3 -47
-1 -99 5 -228 24 -478 -40 -818 -210 -226 -113 -489 -296 -810 -564 -138 -115
-230 -186 -234 -181 -3 2 1 30 8 61 7 32 22 117 34 189 45 288 136 485 305
663 163 171 430 305 730 366 76 16 290 18 374 4z m468 -390 c37 -6 67 -17 70
-25 3 -8 -16 -52 -42 -98 -39 -68 -74 -111 -184 -219 -268 -266 -564 -425
-961 -516 -200 -45 -346 -61 -553 -60 l-182 0 39 32 c21 18 98 81 170 141 385
318 662 500 946 620 170 72 282 107 420 129 54 9 217 6 277 -4z m763 -133
c366 -50 584 -154 811 -386 216 -221 367 -486 422 -740 29 -129 31 -450 4
-583 -65 -323 -186 -508 -477 -731 -252 -194 -561 -302 -1032 -362 -186 -24
-597 -25 -763 -1 -190 27 -317 60 -505 132 -208 80 -282 114 -375 174 -285
186 -469 530 -515 964 -24 218 33 496 134 655 24 39 30 42 69 42 99 0 333 46
522 102 232 69 368 135 600 291 100 68 361 320 390 378 10 18 18 35 19 36 3 4
193 42 231 47 72 8 358 -3 465 -18z"/>
<path d="M3431 2694 c-49 -43 -70 -44 -156 -14 -125 45 -238 43 -320 -5 -49
-28 -148 -131 -142 -148 9 -28 39 -16 91 37 101 104 180 118 350 65 118 -36
154 -34 190 14 22 29 45 87 34 87 -2 0 -24 -16 -47 -36z"/>
<path d="M1410 2640 c0 -32 44 -93 77 -106 33 -14 41 -13 121 12 99 31 209 41
265 24 23 -7 65 -36 107 -77 45 -42 75 -63 85 -59 28 10 15 36 -50 100 -112
111 -222 130 -394 71 -41 -14 -84 -25 -96 -25 -12 0 -40 16 -62 35 -44 37 -53
41 -53 25z"/>
</g>
</svg>
